<svg xmlns="http://www.w3.org/2000/svg" viewBox="0 0 800 600" width="800" height="600" role="img" aria-labelledby="thumb-mfg-title">
  <title id="thumb-mfg-title">MFG Blunders: A Response To His Critiques, Errors, &amp; Fallacies</title>
  <defs>
    <radialGradient id="bg-mfg" cx="50%" cy="45%" r="65%">
      <stop offset="0%" stop-color="#241914"/>
      <stop offset="60%" stop-color="#140E0A"/>
      <stop offset="100%" stop-color="#080504"/>
    </radialGradient>
    <linearGradient id="amber-accent" x1="0%" y1="0%" x2="100%" y2="100%">
      <stop offset="0%" stop-color="#FFA366"/>
      <stop offset="50%" stop-color="#D97738"/>
      <stop offset="100%" stop-color="#8C3814"/>
    </linearGradient>
    <filter id="glow-mfg" x="-20%" y="-20%" width="140%" height="140%">
      <feGaussianBlur stdDeviation="6" result="blur"/>
      <feMerge>
        <feMergeNode in="blur"/>
        <feMergeNode in="SourceGraphic"/>
      </feMerge>
    </filter>
    <style>
      .thumb-mono { font-family: ui-monospace, SFMono-Regular, Menlo, Monaco, Consolas, monospace; }
      .thumb-serif { font-family: 'Source Serif Pro', Georgia, serif; }
      .thumb-sans { font-family: 'DM Sans', -apple-system, sans-serif; }
    </style>
  </defs>
  <rect width="800" height="600" fill="url(#bg-mfg)"/>
  <g opacity="0.1" stroke="#FAF5EE" stroke-width="0.5">
    <circle cx="400" cy="270" r="160" fill="none" stroke-dasharray="4 4"/>
    <line x1="400" y1="40" x2="400" y2="500"/>
    <line x1="180" y1="270" x2="620" y2="270"/>
  </g>
  <g stroke="#D97738" stroke-width="1.25" opacity="0.6">
    <path d="M 30 20 L 30 40 M 20 30 L 40 30"/>
    <path d="M 770 20 L 770 40 M 760 30 L 780 30"/>
    <path d="M 30 570 L 30 590 M 20 580 L 40 580"/>
    <path d="M 770 570 L 770 590 M 760 580 L 780 580"/>
  </g>
  <g transform="translate(400, 260)">
    <rect x="-170" y="-80" width="340" height="150" rx="4" fill="#140E0A" stroke="#D97738" stroke-width="1.5" filter="url(#glow-mfg)"/>
    <text class="thumb-serif" x="0" y="-30" font-size="28" font-weight="700" fill="#FAF5EE" text-anchor="middle">MFG Critiques Refuted</text>
    <line x1="-130" y1="0" x2="130" y2="0" stroke="#D97738" stroke-width="1.5" opacity="0.6"/>
    <text class="thumb-mono" x="0" y="25" font-size="10" font-weight="700" fill="#FFA366" letter-spacing="1.5" text-anchor="middle">LETTER COUNTS · GEMATRIA · 9:128-129</text>
    <text class="thumb-mono" x="0" y="45" font-size="8.5" fill="#A8A096" text-anchor="middle">Systematic Point-by-Point Rebuttal</text>

    <rect x="-75" y="90" width="150" height="24" rx="3" fill="#080504" stroke="#D97738" stroke-width="1"/>
    <text class="thumb-mono" x="0" y="106" font-size="8.5" font-weight="700" fill="#FFA366" letter-spacing="1" text-anchor="middle">PRIMARY AUDIT</text>
  </g>
  <g transform="translate(48, 52)">
    <rect x="0" y="0" width="112" height="22" rx="3" fill="#D97738" fill-opacity="0.18" stroke="#D97738" stroke-opacity="0.5"/>
    <text class="thumb-mono" x="56" y="15" font-size="9" font-weight="700" fill="#FFA366" letter-spacing="1.5" text-anchor="middle">MONOGRAPH 09</text>
    <text class="thumb-sans" x="0" y="42" font-size="11" font-weight="700" fill="#A8A096" letter-spacing="2.5">DEBATE ANALYSIS</text>
  </g>
  <g transform="translate(48, 538)">
    <text class="thumb-serif" x="0" y="0" font-size="22" font-weight="600" fill="#FAF5EE" letter-spacing="-0.5">MFG Blunders: A Response To His Critiques, Errors, &amp; Fallacies</text>
    <text class="thumb-mono" x="0" y="22" font-size="10" fill="#A8A096" letter-spacing="0.8">FARHAN QURESHI DEBATE AUDIT · COUNT CORRECTIONS · METHODOLOGICAL INTEGRITY</text>
    <text class="thumb-mono" x="704" y="22" font-size="10" font-weight="700" fill="#FFA366" letter-spacing="1.5" text-anchor="end">VIEW ↗</text>
  </g>
</svg>
